# xmcd CD database file
#
# Track frame offsets:
#	150
#	17279
#	39208
#	55508
#	74998
#	94255
#	111696
#	129378
#	149792
#	169411
#	189249
#	210571
#
# Disc length: 3016 seconds
#
# Revision: 0
# Processed by: cddbd v1.4PL0 Copyright (c) Steve Scherf et al.
# Submitted via: CDex 1.50
#
DISCID=b10bc60c
DTITLE=Ninni Poijärvi - Viideltä
DYEAR=2002
DGENRE=Jazz
TTITLE0=Sydänasioita
TTITLE1=Ihanin
TTITLE2=Sitäkö se on?
TTITLE3=Kuu
TTITLE4=Viideltä
TTITLE5=Kesä
TTITLE6=Sähköä
TTITLE7=Odottaja
TTITLE8=Sydämenmurskaaja
TTITLE9=Missä mennään?
TTITLE10=Joojootyttö
TTITLE11=Pilviä
EXTD=YEAR: 2002
EXTT0=
EXTT1=
EXTT2=
EXTT3=
EXTT4=
EXTT5=
EXTT6=
EXTT7=
EXTT8=
EXTT9=
EXTT10=
EXTT11=
PLAYORDER=
